<?xml version="1.0"?>
<COLLADA xmlns="http://www.collada.org/2005/11/COLLADASchema" version="1.4.1">
    <asset>
        <contributor>
            <authoring_tool>Supear Mardian SixDaeFour</authoring_tool>
        </contributor>
        <created>2026-03-12T01:20:13.601Z</created>
        <modified>2026-03-12T01:20:13.601Z</modified>
		<unit meter="0.01" name="centimeter" />
        <up_axis>Y_UP</up_axis>
    </asset>
    <library_images>
        <image id="tex_0">
            <init_from>tex_9006000.png</init_from>
        </image>
    </library_images>
    <library_effects>
        <effect id="effect0">
            <profile_COMMON>
                <newparam sid="surface0">
                    <surface type="2D">
                        <init_from>tex_0</init_from>
                    </surface>
                </newparam>
                <newparam sid="sampler0">
                    <sampler2D>
                        <source>surface0</source>
                    </sampler2D>
                </newparam>
                <technique sid="COMMON">
                    <blinn>
                        <diffuse>
                            <texture texture="sampler0" texcoord="UVSET0"></texture>
                        </diffuse>
                    </blinn>
                </technique>
            </profile_COMMON>
        </effect>
    </library_effects>
    <library_materials>
        <material id="mat0" name="Mat0">
            <instance_effect url="#effect0"/>
        </material>
    </library_materials>
    <library_geometries>
        <geometry id="meshMesh0_1">
            <mesh>
                <source id="pointsMesh0_1">
                    <float_array id="pointarrayMesh0_1" count="66">-180 51 -904 -180 0 -904 -180 51 905 -180 0 -904 181 0 -904 181 0 905 -180 0 905 181 51 -904 181 51 905 181 0 905 181 0 -904 181 51 -904 181 51 905 -180 0 905 181 51 905 -180 51 905 -180 0 905 181 0 -904 -180 0 -904 -180 51 -904 181 51 -904 181 0 905</float_array>
                    <technique_common>
                        <accessor count="22" source="#pointarrayMesh0_1" stride="3">
                            <param name="X" type="float"/>
                            <param name="Y" type="float"/>
                            <param name="Z" type="float"/>
                        </accessor>
                    </technique_common>
                </source>
                <source id="uvsMesh0_1">
                    <float_array id="uvarrayMesh0_1" count="44">0.966796875 1 0.927734375 0.861328125 -3.146484375 1 -3.12890625 1 -3.12890625 0.017578125 0.966796875 0.017578125 0.966796875 1 0.966796875 0.017578125 -3.146484375 0.017578125 -3.16796875 0.8515625 0.927734375 0.861328125 0.966796875 1 -3.146484375 1 0 0.916015625 0.673828125 1 0 1 -3.16796875 0.8515625 0.26171875 0.017578125 0.966796875 0.017578125 0.966796875 0.1171875 0.26171875 0.1171875 0.673828125 0.916015625</float_array>
                    <technique_common>
                        <accessor count="22" source="#uvarrayMesh0_1" stride="2">
                            <param name="S" type="float"/>
                            <param name="T" type="float"/>
                        </accessor>
                    </technique_common>
                </source>
                <vertices id="verticesMesh0_1">
                    <input semantic="POSITION" source="#pointsMesh0_1"/>
                </vertices>
                <polylist count="12" material="Material1">
                    <input offset="0" semantic="VERTEX" source="#verticesMesh0_1"/>
                    <input offset="1" semantic="TEXCOORD" source="#uvsMesh0_1" set="0"/>
                    <vcount>3 3 3 3 3 3 3 3 3 3 3 3</vcount>
                    <p>0 0 1 1 2 2 3 3 4 4 5 5 6 6 3 3 5 5 7 7 0 0 2 2 8 8 7 7 2 2 9 9 10 10 11 11 12 12 9 9 11 11 13 13 14 14 15 15 1 1 16 16 2 2 17 17 18 18 19 19 17 17 19 19 20 20 13 13 21 21 14 14</p>
                </polylist>
            </mesh>
        </geometry>
    </library_geometries>
    <library_visual_scenes>
        <visual_scene id="VisualSceneNode">
            <node id="node_Node0" name="Node0_culling">
                <node id="node_Node1" name="Node1_display">
                    <node id="node_Node2" name="Node2_display">
                        <node id="node_Mesh0_1" name="Mesh0">
                            <instance_geometry url="#meshMesh0_1">
                                <bind_material>
                                    <technique_common>
                                        <instance_material symbol="Material1" target="#mat0">
                                            <bind_vertex_input semantic="UVSET0" input_semantic="TEXCOORD" input_set="0"/>
                                        </instance_material>
                                    </technique_common>
                                </bind_material>
                            </instance_geometry>
                        </node>
                    </node>
                </node>
            </node>
        </visual_scene>
    </library_visual_scenes>
    <scene>
        <instance_visual_scene url="#VisualSceneNode"/>
    </scene>
</COLLADA>
